Coordinates
version=1
nRows=25
nColumns=38
inDegrees=no

Units are S.I. units (second, meters, Newtons, ...)
If the header above contains a line with 'inDegrees', this indicates whether rotational values are in degrees (yes) or radians (no).

endheader
time	pelvis_tilt	pelvis_list	pelvis_rotation	pelvis_tx	pelvis_ty	pelvis_tz	hip_flexion_r	hip_adduction_r	hip_rotation_r	knee_angle_r	ankle_angle_r	subtalar_angle_r	mtp_angle_r	hip_flexion_l	hip_adduction_l	hip_rotation_l	knee_angle_l	ankle_angle_l	subtalar_angle_l	mtp_angle_l	lumbar_extension	lumbar_bending	lumbar_rotation	arm_flex_r	arm_add_r	arm_rot_r	elbow_flex_r	pro_sup_r	wrist_flex_r	wrist_dev_r	arm_flex_l	arm_add_l	arm_rot_l	elbow_flex_l	pro_sup_l	wrist_flex_l	wrist_dev_l
0.99	-0.000217617	-0.0924268	-0.0488903	0.921921	1.01273	-0.356523	0.431477	0.151986	-0.130784	-0.76128	0.464158	-0.1	-4.52391e-05	0.18751	-0.194522	-0.201322	-1.81103	0.201509	0.1	-7.93769e-05	-0.273955	0.18293	0.139362	-0.417169	-0.465122	-0.191228	1.66432	1.51803	0.000525988	0.00363372	-0.482449	-0.354787	-0.0203711	2.06769	1.64279	0.00300936	0.00292548
1	-0.0060721	-0.0846283	-0.0508615	0.917732	1.00967	-0.355755	0.412505	0.148188	-0.116369	-0.810218	0.546605	-0.1	-4.52391e-05	0.272725	-0.185379	-0.183398	-1.84687	0.233235	0.1	-7.93769e-05	-0.278217	0.169316	0.163122	-0.374795	-0.461794	-0.189175	1.67151	1.52679	0.000525988	0.00363372	-0.497688	-0.354913	-0.0371711	2.04167	1.63756	0.00300936	0.00292548
1.01	-0.0122376	-0.0731121	-0.0509322	0.913979	1.00809	-0.355292	0.382997	0.13846	-0.105785	-0.837309	0.616043	-0.1	-4.52391e-05	0.356787	-0.169476	-0.166459	-1.86554	0.261756	0.1	-7.93769e-05	-0.279532	0.152013	0.184703	-0.33631	-0.45544	-0.186251	1.68828	1.5374	0.000525988	0.00363372	-0.51296	-0.353329	-0.0497649	2.02029	1.63003	0.00300936	0.00292548
1.02	-0.0184798	-0.0581212	-0.0486459	0.911012	1.00811	-0.355161	0.342577	0.122938	-0.0996252	-0.841866	0.666324	-0.1	-4.52391e-05	0.437346	-0.147383	-0.151112	-1.86623	0.285718	0.1	-7.93769e-05	-0.277323	0.131532	0.203485	-0.303604	-0.446485	-0.181646	1.71541	1.54978	0.000525988	0.00363372	-0.529293	-0.350193	-0.0583346	2.00494	1.62083	0.00300936	0.00292548
1.03	-0.0246095	-0.0401861	-0.0439282	0.909099	1.00975	-0.35536	0.29178	0.102403	-0.09808	-0.82499	0.692069	-0.1	-4.52391e-05	0.512193	-0.12022	-0.137901	-1.84873	0.304345	0.1	-7.93769e-05	-0.271379	0.108552	0.219265	-0.277958	-0.435433	-0.174569	1.75273	1.56402	0.000525988	0.00363372	-0.5476	-0.345638	-0.0635593	1.99661	1.61121	0.00300936	0.00292548
1.04	-0.030425	-0.020058	-0.0370588	0.908387	1.01292	-0.355862	0.231823	0.0781686	-0.100952	-0.789143	0.689132	-0.1	-4.52391e-05	0.579338	-0.0895229	-0.127263	-1.81338	0.317574	0.1	-7.93769e-05	-0.261954	0.0838345	0.23219	-0.25988	-0.422819	-0.164307	1.79901	1.58037	0.000525988	0.00363372	-0.568543	-0.339734	-0.0664729	1.99564	1.60269	0.00300936	0.00292548
1.05	-0.035679	0.00135814	-0.0285572	0.908892	1.01747	-0.356618	0.164427	0.0518785	-0.1078	-0.737793	0.6553	-0.1	-4.52391e-05	0.637089	-0.0570847	-0.119538	-1.76091	0.325991	0.1	-7.93769e-05	-0.249733	0.0581861	0.242624	-0.249131	-0.409166	-0.150316	1.85222	1.5992	0.000525988	0.00363372	-0.592443	-0.332496	-0.0682405	2.00169	1.59655	0.00300936	0.00292548
1.06	-0.0400973	0.0230575	-0.0190357	0.910521	1.02319	-0.357562	0.0917242	0.025283	-0.118148	-0.675201	0.591058	-0.1	-4.52391e-05	0.684148	-0.0247708	-0.115027	-1.69234	0.330559	0.1	-7.93769e-05	-0.235701	0.0324577	0.251011	-0.244886	-0.394954	-0.132314	1.90976	1.62075	0.000525988	0.00363372	-0.619239	-0.323921	-0.0699191	2.01382	1.5934	0.00300936	0.00292548
1.07	-0.0434372	0.0439711	-0.00907941	0.913091	1.02981	-0.358616	0.0162295	7.99645e-05	-0.131561	-0.606331	0.500088	-0.1	-4.52391e-05	0.719725	0.00560572	-0.114126	-1.60894	0.332296	0.1	-7.93769e-05	-0.220947	0.00757246	0.257776	-0.24598	-0.380619	-0.110365	1.96888	1.6449	0.000525988	0.00363372	-0.648493	-0.314026	-0.0722757	2.03064	1.59296	0.00300936	0.00292548
1.08	-0.0455505	0.0629932	0.000820936	0.916357	1.03699	-0.359694	-0.0591857	-0.022192	-0.147568	-0.53678	0.389236	-0.1	-4.52391e-05	0.743608	0.0324032	-0.117469	-1.51222	0.331914	0.1	-7.93769e-05	-0.206468	-0.0154733	0.263283	-0.251137	-0.366559	-0.0849124	2.02695	1.67096	0.000525988	0.00363372	-0.679433	-0.302879	-0.0757032	2.05052	1.59417	0.00300936	0.00292548
1.09	-0.0464427	0.0790393	0.0102871	0.920034	1.04436	-0.360711	-0.131419	-0.0402275	-0.16546	-0.472608	0.26785	-0.1	-4.52391e-05	0.756194	0.054238	-0.126058	-1.40397	0.32965	0.1	-7.93769e-05	-0.193048	-0.0356577	0.267829	-0.259165	-0.353138	-0.0567696	2.08176	1.69777	0.000525988	0.00363372	-0.71103	-0.290619	-0.0802385	2.0718	1.59547	0.00300936	0.00292548
1.1	-0.0462507	0.0911621	0.019055	0.923819	1.05152	-0.361591	-0.197412	-0.0530372	-0.184138	-0.419907	0.146451	-0.1	-4.52391e-05	0.758413	0.0701041	-0.14127	-1.28637	0.32524	0.1	-7.93769e-05	-0.181219	-0.0520388	0.271643	-0.269088	-0.340671	-0.0270625	2.13161	1.72382	0.000525988	0.00363372	-0.742087	-0.277464	-0.0856519	2.09297	1.59535	0.00300936	0.00292548
1.11	-0.0451798	0.0987027	0.0269793	0.927435	1.05818	-0.362269	-0.25451	-0.0601	-0.202257	-0.384178	0.0351736	-0.1	-4.52391e-05	0.751603	0.0795364	-0.164694	-1.16204	0.318029	0.1	-7.93769e-05	-0.171295	-0.0639245	0.274862	-0.280206	-0.329396	0.00287018	2.17533	1.7476	0.000525988	0.00363372	-0.771339	-0.263723	-0.0915683	2.11273	1.59272	0.00300936	0.00292548
1.12	-0.0434345	0.101448	0.0340469	0.930664	1.06412	-0.362702	-0.300803	-0.0615068	-0.218547	-0.369627	-0.0578728	-0.1	-4.52391e-05	0.737369	0.0827397	-0.197836	-1.03416	0.307289	0.1	-7.93769e-05	-0.163448	-0.0710516	0.277505	-0.292119	-0.319429	0.0315961	2.21223	1.76785	0.000525988	0.00363372	-0.797552	-0.249797	-0.0975864	2.13004	1.58716	0.00300936	0.00292548
1.13	-0.0411689	0.0997368	0.0403877	0.933381	1.06923	-0.362883	-0.335322	-0.0580482	-0.232269	-0.378661	-0.127786	-0.1	-4.52391e-05	0.717435	0.0806583	-0.241659	-0.90635	0.292534	0.1	-7.93769e-05	-0.157771	-0.0737121	0.279434	-0.304693	-0.310741	0.0577184	2.24201	1.78373	0.000525988	0.00363372	-0.819607	-0.236179	-0.103372	2.14419	1.57896	0.00300936	0.00292548
1.14	-0.0384604	0.0944647	0.0462638	0.935537	1.07344	-0.362837	-0.358044	-0.0511613	-0.243455	-0.411699	-0.173433	-0.1	-4.52391e-05	0.693524	0.0748747	-0.29613	-0.78256	0.273821	0.1	-7.93769e-05	-0.154334	-0.0727654	0.280367	-0.317993	-0.303157	0.0800024	2.26464	1.79482	0.000525988	0.00363372	-0.836582	-0.223433	-0.108713	2.15469	1.56891	0.00300936	0.00292548
1.15	-0.0353252	0.0869342	0.0520214	0.93714	1.07673	-0.362619	-0.36973	-0.0427356	-0.252866	-0.467343	-0.197118	-0.1	-4.52391e-05	0.667248	0.0673949	-0.359774	-0.666814	0.251802	0.1	-7.93769e-05	-0.153189	-0.0695264	0.279915	-0.332195	-0.296406	0.0974861	2.28029	1.8011	0.000525988	0.00363372	-0.847812	-0.21215	-0.113535	2.16133	1.5581	0.00300936	0.00292548
1.16	-0.0317541	0.0786774	0.0580237	0.938232	1.07909	-0.362309	-0.371637	-0.0347909	-0.26165	-0.54281	-0.203498	-0.1	-4.52391e-05	0.640033	0.0603162	-0.429414	-0.562835	0.227554	0.1	-7.93769e-05	-0.154348	-0.06552	0.277666	-0.34749	-0.290186	0.109559	2.28924	1.80278	0.000525988	0.00363372	-0.852929	-0.202881	-0.117882	2.16407	1.54762	0.00300936	0.00292548
1.17	-0.0277565	0.0711703	0.064553	0.938861	1.08055	-0.361998	-0.365205	-0.0291122	-0.27083	-0.634478	-0.198139	-0.1	-4.52391e-05	0.613053	0.0554359	-0.500376	-0.473686	0.202402	0.1	-7.93769e-05	-0.15774	-0.0622063	0.273278	-0.364007	-0.284253	0.115991	2.29188	1.80023	0.000525988	0.00363372	-0.851873	-0.196065	-0.121874	2.16304	1.53832	0.00300936	0.00292548
1.18	-0.0233959	0.0655705	0.071737	0.939065	1.08111	-0.361765	-0.351775	-0.0269359	-0.280908	-0.738419	-0.186158	-0.1	-4.52391e-05	0.587183	0.0539623	-0.566948	-0.401449	0.177694	0.1	-7.93769e-05	-0.163183	-0.0607182	0.266559	-0.381756	-0.278489	0.116907	2.28868	1.79385	0.000525988	0.00363372	-0.844872	-0.191971	-0.12565	2.1585	1.53068	0.00300936	0.00292548
1.19	-0.0187965	0.0625354	0.0795079	0.938869	1.08078	-0.361655	-0.332407	-0.0287685	-0.29169	-0.850828	-0.17135	-0.1	-4.52391e-05	0.562978	0.0563139	-0.623317	-0.347113	0.154779	0.1	-7.93769e-05	-0.170388	-0.0616732	0.257505	-0.400607	-0.272945	0.112721	2.28018	1.78407	0.000525988	0.00363372	-0.832386	-0.190661	-0.129324	2.15078	1.52473	0.00300936	0.00292548
1.2	-0.0141608	0.062178	0.0876129	0.938289	1.07955	-0.361672	-0.307791	-0.034396	-0.302402	-0.968321	-0.155858	-0.1	-4.52391e-05	0.540687	0.0621639	-0.664351	-0.310595	0.134995	0.1	-7.93769e-05	-0.178994	-0.0651094	0.24629	-0.420287	-0.267836	0.104042	2.26699	1.77129	0.000525988	0.00363372	-0.815044	-0.191998	-0.132957	2.14024	1.52018	0.00300936	0.00292548
1.21	-0.00969976	0.0641156	0.0956504	0.937343	1.07741	-0.361783	-0.278223	-0.0430705	-0.311949	-1.08809	-0.140309	-0.1	-4.52391e-05	0.520343	0.0706402	-0.68636	-0.290976	0.119721	0.1	-7.93769e-05	-0.188579	-0.0705845	0.233204	-0.440409	-0.263493	0.0915868	2.24973	1.75595	0.000525988	0.00363372	-0.793562	-0.195679	-0.13657	2.12725	1.5165	0.00300936	0.00292548
1.22	-0.00563891	0.06767	0.103137	0.936055	1.07434	-0.361928	-0.243665	-0.0537807	-0.319144	-1.2079	-0.124316	-0.1	-4.52391e-05	0.501868	0.0805222	-0.688008	-0.286959	0.110453	0.1	-7.93769e-05	-0.198701	-0.077367	0.218572	-0.460491	-0.260288	0.0761222	2.22898	1.7385	0.000525988	0.00363372	-0.768679	-0.201297	-0.140171	2.11216	1.51311	0.00300936	0.00292548
1.23	-0.00221519	0.0721083	0.109589	0.934449	1.07031	-0.362044	-0.203823	-0.0655657	-0.322936	-1.32606	-0.106953	-0.1	-4.52391e-05	0.485179	0.090543	-0.670549	-0.297225	0.108872	0.1	-7.93769e-05	-0.208921	-0.0846948	0.202657	-0.47998	-0.258543	0.0584127	2.20522	1.71949	0.000525988	0.00363372	-0.741097	-0.20841	-0.143789	2.09532	1.50946	0.00300936	0.00292548
